<?xml version="1.0" encoding="utf-8"?>
<!-- Generator: Adobe Illustrator 21.1.0, SVG Export Plug-In . SVG Version: 6.00 Build 0)  -->
<svg version="1.1" id="Layer_1" xmlns="http://www.w3.org/2000/svg" xmlns:xlink="http://www.w3.org/1999/xlink" x="0px" y="0px"
	 viewBox="0 0 362.8 362.8" style="enable-background:new 0 0 362.8 362.8;" xml:space="preserve">
<style type="text/css">
	.st0{fill:#0082B2;}
	.st1{font-family:'Andalus';}
	.st2{font-size:109.0612px;}
	.st3{fill:#29B53F;}
	.st4{font-size:52.1907px;}
	.st5{fill:#8CBDFF;}
	.st6{font-size:46.8398px;}
	.st7{fill:none;stroke:#B8FFFF;stroke-width:17;stroke-linecap:round;stroke-miterlimit:10;}
	.st8{fill:none;stroke:#231F20;stroke-width:9;stroke-linecap:round;stroke-miterlimit:10;}
</style>
<g id="Layer_1_1_">
	<g>
		<text transform="matrix(1.3969 0 0 1 54.8975 211.3769)" class="st0 st1 st2">.Net</text>
	</g>
	<g>
		<text transform="matrix(1.2941 0 0 1 96.668 264.0067)" class="st3 st1 st4">helper</text>
	</g>
	<g>
		<text transform="matrix(1.0948 0 0 1 121.3335 124.0922)" class="st5 st1 st6">Taran</text>
	</g>
</g>
<g id="Layer_2">
	<g>
		<polygon class="st7" points="36.6,97.4 36.6,265.5 181.4,349.5 326.3,265.5 326.3,97.4 181.4,13.3 		"/>
		<polygon class="st7" points="97.8,327 265,327 348.7,181.4 265,35.9 97.8,35.9 14.2,181.4 		"/>
	</g>
</g>
<g id="Layer_3">
	<g>
		<polygon class="st8" points="37,97.4 37,265.5 181.8,349.5 326.7,265.5 326.7,97.4 181.8,13.3 		"/>
		<polygon class="st8" points="98.2,327 265.5,327 349.1,181.4 265.5,35.9 98.2,35.9 14.6,181.4 		"/>
	</g>
</g>
</svg>
